<svg width="24" height="24" viewBox="0 0 24 24" fill="none" xmlns="http://www.w3.org/2000/svg">
<!-- NAV ICONS -->
    <g id="home" clip-path="url(#clip0_84_1607)">
    <path id="Vector 30 (Stroke)" fill-rule="evenodd" clip-rule="evenodd" d="M11.4631 1.15634C11.7907 0.947887 12.2093 0.947887 12.5369 1.15634L23.5369 8.15634C24.0028 8.45285 24.1402 9.07093 23.8436 9.53687C23.5471 10.0028 22.9291 10.1402 22.4631 9.84366L22 9.54894V20C22 21.6569 20.6568 23 19 23H15C14.4477 23 14 22.5523 14 22V14C14 13.4477 13.5523 13 13 13H11C10.4477 13 9.99999 13.4477 9.99999 14V22C9.99999 22.5523 9.55227 23 8.99999 23H4.99999C3.34314 23 1.99999 21.6569 1.99999 20V9.54894L1.53686 9.84366C1.07092 10.1402 0.452836 10.0028 0.156327 9.53687C-0.140181 9.07093 -0.00282809 8.45285 0.463113 8.15634L11.4631 1.15634ZM3.99999 8.27622V20C3.99999 20.5523 4.4477 21 4.99999 21H7.99999V14C7.99999 12.3431 9.34313 11 11 11H13C14.6568 11 16 12.3431 16 14V21H19C19.5523 21 20 20.5523 20 20V8.27622L12 3.18531L3.99999 8.27622Z" fill="#0044FF"/>
    </g>
    <defs>
    <clipPath id="clip0_84_1607">
    <rect width="24" height="24" fill="white"/>
    </clipPath>
    </defs>

    <g id="home-filled" clip-path="url(#clip0_84_1609)">
    <path id="Union" d="M12.5369 1.15634C12.2093 0.947887 11.7907 0.947887 11.4631 1.15634L0.463113 8.15634C-0.00282809 8.45285 -0.140181 9.07093 0.156327 9.53687C0.452836 10.0028 1.07092 10.1402 1.53686 9.84366L1.99999 9.54894V20C1.99999 21.6569 3.34314 23 4.99999 23H8.99999C9.55227 23 9.99999 22.5523 9.99999 22V14C9.99999 13.4477 10.4477 13 11 13H13C13.5523 13 14 13.4477 14 14V22C14 22.5523 14.4477 23 15 23H19C20.6568 23 22 21.6569 22 20V9.54894L22.4631 9.84366C22.9291 10.1402 23.5471 10.0028 23.8436 9.53687C24.1402 9.07093 24.0028 8.45285 23.5369 8.15634L12.5369 1.15634Z" fill="#0044FF"/>
    </g>
    <defs>
    <clipPath id="clip0_84_1609">
    <rect width="24" height="24" fill="white"/>
    </clipPath>
    </defs>

    <g id="info-filled">
    <path id="Subtract" fill-rule="evenodd" clip-rule="evenodd" d="M0 12C0 5.37258 5.37258 0 12 0C18.6274 0 24 5.37258 24 12C24 18.6274 18.6274 24 12 24C5.37258 24 0 18.6274 0 12ZM13.25 8.25C13.25 8.94036 12.6904 9.5 12 9.5C11.3096 9.5 10.75 8.94036 10.75 8.25C10.75 7.55964 11.3096 7 12 7C12.6904 7 13.25 7.55964 13.25 8.25ZM12 11C12.5523 11 13 11.4477 13 12V16C13 16.5523 12.5523 17 12 17C11.4477 17 11 16.5523 11 16V12C11 11.4477 11.4477 11 12 11Z" fill="#0044ff"/>
    </g>

    <g id="info">
    <path id="Union" fill-rule="evenodd" clip-rule="evenodd" d="M12 2C6.47715 2 2 6.47715 2 12C2 17.5228 6.47715 22 12 22C17.5228 22 22 17.5228 22 12C22 6.47715 17.5228 2 12 2ZM0 12C0 5.37258 5.37258 0 12 0C18.6274 0 24 5.37258 24 12C24 18.6274 18.6274 24 12 24C5.37258 24 0 18.6274 0 12ZM13.25 8.25C13.25 8.94036 12.6904 9.5 12 9.5C11.3096 9.5 10.75 8.94036 10.75 8.25C10.75 7.55964 11.3096 7 12 7C12.6904 7 13.25 7.55964 13.25 8.25ZM13 12C13 11.4477 12.5523 11 12 11C11.4477 11 11 11.4477 11 12V16C11 16.5523 11.4477 17 12 17C12.5523 17 13 16.5523 13 16V12Z" fill="#0044FF"/>
    </g>

<!-- HEADING ICONS -->
    <g id="book-heading" clip-path="url(#clip0_1557_5724)">
    <path id="Subtract" fill-rule="evenodd" clip-rule="evenodd" d="M7.7587 3.06123e-07H21C21.5523 3.06123e-07 22 0.447719 22 1V23C22 23.5523 21.5523 24 21 24H6C3.79086 24 2 22.2091 2 20V5.75868C1.99999 4.95373 1.99998 4.28936 2.0442 3.74818C2.09012 3.18608 2.18869 2.66938 2.43598 2.18404C2.81947 1.43139 3.43139 0.819471 4.18404 0.435977C4.66938 0.188686 5.18608 0.0901222 5.74818 0.044197C6.28935 -1.82129e-05 6.95378 -9.83933e-06 7.7587 3.06123e-07ZM20 18V19H4.26757C4.61338 18.4022 5.25972 18 6 18H20ZM20 21H4.26757C4.61338 21.5978 5.25972 22 6 22H20V21ZM10 2H18V9C18 9.3688 17.797 9.70766 17.4719 9.88167C17.1467 10.0557 16.7522 10.0366 16.4453 9.83205L14 8.20185L11.5547 9.83205C11.2478 10.0366 10.8533 10.0557 10.5281 9.88167C10.203 9.70766 10 9.3688 10 9V2Z" fill="#0044FF"/>
    </g>
    <defs>
    <clipPath id="clip0_1557_5724">
    <rect width="24" height="24" fill="white"/>
    </clipPath>
    </defs>

    <g id="heart-heading">
    <path id="Union" d="M6.40519 2.30297C8.3143 2.09085 10.3244 2.77793 12 4.4763C13.6756 2.77793 15.6857 2.09085 17.5948 2.30297C19.7909 2.54698 21.7118 3.97004 22.6625 6.09092C24.6113 10.4382 22.4003 17.0274 12.508 22.8613C12.1946 23.0462 11.8054 23.0462 11.492 22.8613C1.59971 17.0274 -0.611287 10.4382 1.33749 6.09092C2.28823 3.97004 4.20911 2.54698 6.40519 2.30297Z" fill="#0044FF"/>
    </g>

    <g id="person-heading">
    <path id="Union" fill-rule="evenodd" clip-rule="evenodd" d="M12 0C8.68629 0 6 2.68629 6 6C6 9.31371 8.68629 12 12 12C15.3137 12 18 9.31371 18 6C18 2.68629 15.3137 0 12 0ZM7 14C4.23858 14 2 16.2386 2 19C2 21.7614 4.23858 24 7 24H17C19.7614 24 22 21.7614 22 19C22 16.2386 19.7614 14 17 14H7Z" fill="#0044FF"/>
    </g>

    <g id="search-heading">
    <path id="Union" fill-rule="evenodd" clip-rule="evenodd" d="M10.5 1C5.25329 1 1 5.25329 1 10.5C1 15.7467 5.25329 20 10.5 20C12.3997 20 14.1691 19.4424 15.6536 18.482L19.5858 22.4142C20.3668 23.1953 21.6332 23.1953 22.4142 22.4142C23.1953 21.6332 23.1953 20.3668 22.4142 19.5858L18.482 15.6536C19.4424 14.1691 20 12.3997 20 10.5C20 5.25329 15.7467 1 10.5 1ZM5 10.5C5 7.46243 7.46243 5 10.5 5C13.5376 5 16 7.46243 16 10.5C16 13.5376 13.5376 16 10.5 16C7.46243 16 5 13.5376 5 10.5Z" fill="#0044FF"/>
    </g>

    <g id="clock-filled" clip-path="url(#clip0_191_4617)">
    <path id="Subtract" fill-rule="evenodd" clip-rule="evenodd" d="M-0.00012207 12C-0.00012207 5.37258 5.37246 0 11.9999 0C18.6273 0 23.9999 5.37258 23.9999 12C23.9999 18.6274 18.6273 24 11.9999 24C5.37246 24 -0.00012207 18.6274 -0.00012207 12ZM12.9999 6C12.9999 5.44772 12.5522 5 11.9999 5C11.4477 5 10.9999 5.44772 10.9999 6V12C10.9999 12.3513 11.1842 12.6768 11.4854 12.8575L16.4854 15.8575C16.959 16.1416 17.5733 15.9881 17.8574 15.5145C18.1416 15.0409 17.988 14.4267 17.5144 14.1425L12.9999 11.4338V6Z" fill="#0044FF"/>
    </g>
    <defs>
    <clipPath id="clip0_191_4617">
    <rect width="24" height="24" fill="white"/>
    </clipPath>
    </defs>

    <g id="clock" clip-path="url(#clip0_191_4620)">
    <path d="M12.9999 6C12.9999 5.44772 12.5522 5 11.9999 5C11.4477 5 10.9999 5.44772 10.9999 6V12C10.9999 12.3513 11.1842 12.6768 11.4854 12.8575L16.4854 15.8575C16.959 16.1416 17.5733 15.9881 17.8574 15.5145C18.1416 15.0409 17.988 14.4267 17.5144 14.1425L12.9999 11.4338V6Z" fill="#0044FF"/>
    <path fill-rule="evenodd" clip-rule="evenodd" d="M11.9999 0C5.37252 0 -6.10352e-05 5.37258 -6.10352e-05 12C-6.10352e-05 18.6274 5.37252 24 11.9999 24C18.6274 24 23.9999 18.6274 23.9999 12C23.9999 5.37258 18.6274 0 11.9999 0ZM1.99994 12C1.99994 6.47715 6.47709 2 11.9999 2C17.5228 2 21.9999 6.47715 21.9999 12C21.9999 17.5228 17.5228 22 11.9999 22C6.47709 22 1.99994 17.5228 1.99994 12Z" fill="#0044FF"/>
    </g>
    <defs>
    <clipPath id="clip0_191_4620">
    <rect width="24" height="24" fill="white"/>
    </clipPath>
    </defs>

    <g id="nut-filled" clip-path="url(#clip0_191_4609)">
    <path id="Subtract" fill-rule="evenodd" clip-rule="evenodd" d="M3.98386 3.5904C4.86262 1.99266 6.54148 1 8.36494 1H15.6348C17.4582 1 19.1371 1.99266 20.0159 3.5904L23.3158 9.59038C24.1411 11.0908 24.1411 12.9091 23.3159 14.4096L20.0158 20.4096C19.1371 22.0073 17.4582 23 15.6348 23H8.36494C6.54149 23 4.86262 22.0073 3.98386 20.4096L0.683858 14.4096C-0.141367 12.9091 -0.141363 11.0908 0.683865 9.59037L3.98386 3.5904ZM11.9999 16C14.2091 16 15.9999 14.2091 15.9999 12C15.9999 9.79086 14.2091 8 11.9999 8C9.7908 8 7.99994 9.79086 7.99994 12C7.99994 14.2091 9.7908 16 11.9999 16Z" fill="#0044FF"/>
    </g>
    <defs>
    <clipPath id="clip0_191_4609">
    <rect width="24" height="24" fill="white"/>
    </clipPath>
    </defs>

    <g id="nut" clip-path="url(#clip0_191_4613)">
    <path id="Subtract (Stroke)" fill-rule="evenodd" clip-rule="evenodd" d="M8.36506 3C7.27099 3 6.26367 3.5956 5.73641 4.55424L2.43642 10.5542C1.94128 11.4545 1.94128 12.5455 2.43641 13.4457L5.73642 19.4458C6.26367 20.4044 7.27099 21 8.36507 21H15.6349C16.729 21 17.7363 20.4044 18.2635 19.4458L21.5635 13.4457C22.0587 12.5455 22.0587 11.4545 21.5635 10.5542L18.2635 4.55424C17.7363 3.5956 16.729 3 15.6349 3H8.36506ZM3.98398 3.5904C4.86274 1.99266 6.54161 1 8.36506 1H15.6349C17.4584 1 19.1372 1.99266 20.016 3.5904L23.316 9.59038C24.1412 11.0908 24.1412 12.9091 23.316 14.4096L20.016 20.4096C19.1372 22.0073 17.4583 23 15.6349 23H8.36507C6.54161 23 4.86274 22.0073 3.98398 20.4096L0.68398 14.4096C-0.141245 12.9091 -0.141241 11.0908 0.683988 9.59037L3.98398 3.5904ZM12 9C10.3431 9 9 10.3431 9 12C9 13.6569 10.3431 15 12 15C13.6569 15 15 13.6569 15 12C15 10.3431 13.6569 9 12 9ZM7 12C7 9.23858 9.23858 7 12 7C14.7614 7 17 9.23858 17 12C17 14.7614 14.7614 17 12 17C9.23858 17 7 14.7614 7 12Z" fill="#0044FF"/>
    </g>
    <defs>
    <clipPath id="clip0_191_4613">
    <rect width="24" height="24" fill="white"/>
    </clipPath>
    </defs>

    <g id="pencil-filled" clip-path="url(#clip0_191_4623)">
    <path d="M15.8786 1.70711C17.0501 0.535535 18.9496 0.535538 20.1212 1.70711L22.2928 3.87868C23.4644 5.05026 23.4644 6.94975 22.2928 8.12132L19.4141 11L12.9999 4.58576L15.8786 1.70711Z" fill="#0044FF"/>
    <path d="M11.5857 5.99998L2.29278 15.2929C2.14541 15.4403 2.04776 15.63 2.0135 15.8356L1.0135 21.8356C0.960404 22.1542 1.06442 22.4787 1.29278 22.7071C1.52114 22.9355 1.84573 23.0395 2.16429 22.9864L8.16429 21.9864C8.36988 21.9521 8.55962 21.8545 8.707 21.7071L17.9999 12.4142L11.5857 5.99998Z" fill="#0044FF"/>
    </g>
    <defs>
    <clipPath id="clip0_191_4623">
    <rect width="24" height="24" fill="white"/>
    </clipPath>
    </defs>

    <g id="pencil" clip-path="url(#clip0_191_4626)">
    <path id="Vector 39 (Stroke)" fill-rule="evenodd" clip-rule="evenodd" d="M15.8786 1.70711C17.0502 0.535535 18.9497 0.535539 20.1213 1.70711L22.2928 3.87868C23.4644 5.05026 23.4644 6.94975 22.2928 8.12132L8.70706 21.7071C8.55968 21.8545 8.36994 21.9521 8.16435 21.9864L2.16435 22.9864C1.84579 23.0395 1.52121 22.9355 1.29284 22.7071C1.06448 22.4787 0.960465 22.1542 1.01356 21.8356L2.01356 15.8356C2.04782 15.63 2.14547 15.4403 2.29284 15.2929L15.8786 1.70711ZM18.7071 3.12132C18.3165 2.7308 17.6834 2.7308 17.2928 3.12132L14.4142 6L18 9.58579L20.8786 6.70711C21.2692 6.31659 21.2692 5.68342 20.8786 5.2929L18.7071 3.12132ZM16.5857 11L13 7.41422L3.93366 16.4805L3.2165 20.7835L7.51945 20.0663L16.5857 11Z" fill="#0044FF"/>
    </g>
    <defs>
    <clipPath id="clip0_191_4626">
    <rect width="24" height="24" fill="white"/>
    </clipPath>
    </defs>

<!-- ABOUT -->
    <g id="about-filled">
    <path id="Union" fill-rule="evenodd" clip-rule="evenodd" d="M12 0C8.68629 0 6 2.68629 6 6C6 9.31371 8.68629 12 12 12C15.3137 12 18 9.31371 18 6C18 2.68629 15.3137 0 12 0ZM7 14C4.23858 14 2 16.2386 2 19C2 21.7614 4.23858 24 7 24H17C19.7614 24 22 21.7614 22 19C22 16.2386 19.7614 14 17 14H7Z" fill="white"/>
    </g>

    <g id="about">
    <path id="Union" fill-rule="evenodd" clip-rule="evenodd" d="M8 6C8 3.79086 9.79086 2 12 2C14.2091 2 16 3.79086 16 6C16 8.20914 14.2091 10 12 10C9.79086 10 8 8.20914 8 6ZM12 0C8.68629 0 6 2.68629 6 6C6 9.31371 8.68629 12 12 12C15.3137 12 18 9.31371 18 6C18 2.68629 15.3137 0 12 0ZM7 14C4.23858 14 2 16.2386 2 19C2 21.7614 4.23858 24 7 24H17C19.7614 24 22 21.7614 22 19C22 16.2386 19.7614 14 17 14H7ZM4 19C4 17.3431 5.34315 16 7 16H17C18.6569 16 20 17.3431 20 19C20 20.6569 18.6569 22 17 22H7C5.34315 22 4 20.6569 4 19Z" fill="#0044FF"/>
    </g>

<!-- DRIBBBLE -->
    <g id="dribbble-filled">
    <path d="M11 0.0410156C8.12176 0.278465 5.53154 1.53168 3.58864 3.44137L3.93127 3.90841C5.56713 6.13821 8.10164 7.66294 11 7.95057V0.0410156Z" fill="white"/>
    <path d="M2.25183 5.00031C0.834659 6.97048 0 9.38774 0 11.9999C0 14.6121 0.834656 17.0294 2.25183 18.9996L2.31869 18.9084C4.3159 16.1861 7.4372 14.3351 11 14.041V9.95883C7.4372 9.66477 4.3159 7.8138 2.31869 5.09144L2.25183 5.00031Z" fill="white"/>
    <path d="M3.58864 20.5585C5.53154 22.4682 8.12176 23.7214 11 23.9589V16.0493C8.10164 16.3369 5.56713 17.8617 3.93127 20.0915L3.58864 20.5585Z" fill="white"/>
    <path d="M13 23.9589C15.8783 23.7214 18.4685 22.4682 20.4114 20.5585L20.0688 20.0915C18.4329 17.8616 15.8984 16.3369 13 16.0493V23.9589Z" fill="white"/>
    <path d="M21.7482 18.9995C23.1654 17.0294 24 14.6121 24 11.9999C24 9.38775 23.1653 6.9705 21.7482 5.00034L21.6814 5.09144C19.6841 7.81381 16.5628 9.66479 13 9.95883V14.041C16.5628 14.3351 19.6841 16.1861 21.6814 18.9084L21.7482 18.9995Z" fill="white"/>
    <path d="M20.4114 3.4414C18.4685 1.53169 15.8783 0.278467 13 0.0410156V7.95058C15.8984 7.66296 18.4329 6.13822 20.0688 3.90841L20.4114 3.4414Z" fill="white"/>
    </g>

    <g id="dribbble">
    <path id="Union" fill-rule="evenodd" clip-rule="evenodd" d="M12 0C5.37258 0 0 5.37258 0 12C0 18.6274 5.37258 24 12 24C18.6274 24 24 18.6274 24 12C24 5.37258 18.6274 0 12 0ZM11 2.04938C8.60274 2.28739 6.45453 3.372 4.85857 5C6.45529 6.62893 8.60324 7.71275 11 7.95061V2.04938ZM2 12C2 9.99834 2.58811 8.13404 3.60095 6.57047C5.54176 8.47252 8.12737 9.72177 11 9.95887V14.0411C8.12736 14.2782 5.54174 15.5274 3.60094 17.4295C2.5881 15.8659 2 14.0017 2 12ZM4.85856 19C6.45451 20.628 8.60273 21.7126 11 21.9506V16.0494C8.60323 16.2872 6.45527 17.371 4.85856 19ZM13 16.0493V21.9506C15.3973 21.7126 17.5455 20.628 19.1415 18.9999C17.5448 17.371 15.3968 16.2872 13 16.0493ZM20.3991 17.4294C21.4119 15.8659 22 14.0016 22 12C22 9.99837 21.4119 8.13409 20.3991 6.57053C18.4583 8.47258 15.8726 9.7218 13 9.95888V14.0411C15.8727 14.2782 18.4583 15.5274 20.3991 17.4294ZM13 2.04938C15.3973 2.28739 17.5455 3.37202 19.1415 5.00005C17.5447 6.62898 15.3968 7.71279 13 7.95062V2.04938Z" fill="#0044FF"/>
    </g>

<!-- EMAIL -->
    <g id="email-filled" clip-path="url(#clip0_1557_5704)">
    <path d="M7.35719 2H16.6428C17.7266 1.99999 18.6008 1.99998 19.3086 2.05782C20.0375 2.11737 20.6777 2.24318 21.27 2.54497C21.8559 2.84353 22.3736 3.25285 22.7966 3.74644L14.0271 11.7852C12.8802 12.8365 11.1197 12.8365 9.97277 11.7852L1.20332 3.7465C1.62633 3.25288 2.14407 2.84354 2.73005 2.54497C3.32234 2.24318 3.96253 2.11737 4.69138 2.05782C5.39925 1.99998 6.27342 1.99999 7.35719 2Z" fill="white"/>
    <path d="M0.232581 5.56979C0.14264 5.92163 0.090345 6.29328 0.057819 6.69138C-1.64807e-05 7.39925 -9.01985e-06 8.27339 2.3321e-07 9.35716V14.6428C-9.01985e-06 15.7266 -1.64807e-05 16.6008 0.057819 17.3086C0.117368 18.0375 0.243181 18.6777 0.544969 19.27C0.623362 19.4238 0.709392 19.573 0.802578 19.7169L7.47587 12.2095L0.232581 5.56979Z" fill="white"/>
    <path d="M2.20709 21.1473C2.37437 21.2599 2.54895 21.3628 2.73005 21.455C3.32234 21.7568 3.96253 21.8826 4.69138 21.9422C5.39923 22 6.27334 22 7.35707 22H16.6428C17.7266 22 18.6008 22 19.3086 21.9422C20.0375 21.8826 20.6777 21.7568 21.27 21.455C21.451 21.3628 21.6256 21.2599 21.7929 21.1473L15.0365 13.5463C13.2477 14.9161 10.7523 14.9162 8.96344 13.5464L2.20709 21.1473Z" fill="white"/>
    <path d="M23.1974 19.7169C23.2906 19.573 23.3766 19.4238 23.455 19.27C23.7568 18.6777 23.8826 18.0375 23.9422 17.3086C24 16.6008 24 15.7267 24 14.6429V9.35717C24 8.27344 24 7.39923 23.9422 6.69138C23.9097 6.29325 23.8574 5.92157 23.7674 5.56971L16.5241 12.2094L23.1974 19.7169Z" fill="white"/>
    </g>
    <defs>
    <clipPath id="clip0_1557_5704">
    <rect width="24" height="24" fill="white"/>
    </clipPath>
    </defs>

    <g id="email" clip-path="url(#clip0_1557_5702)">
    <path id="Union" fill-rule="evenodd" clip-rule="evenodd" d="M16.6428 2H7.35719C6.27341 1.99999 5.39925 1.99998 4.69138 2.05782C3.96253 2.11737 3.32234 2.24318 2.73005 2.54497C1.78924 3.02434 1.02434 3.78924 0.544968 4.73005C0.243181 5.32234 0.117368 5.96253 0.0578188 6.69138C-1.69165e-05 7.39925 -9.25633e-06 8.2734 2.42552e-07 9.35718V14.6428C-9.25633e-06 15.7266 -1.69165e-05 16.6007 0.0578188 17.3086C0.117368 18.0375 0.243181 18.6777 0.544968 19.27C1.02434 20.2108 1.78924 20.9757 2.73005 21.455C3.32234 21.7568 3.96253 21.8826 4.69138 21.9422C5.39923 22 6.27334 22 7.35707 22H16.6428C17.7266 22 18.6008 22 19.3086 21.9422C20.0375 21.8826 20.6777 21.7568 21.27 21.455C22.2108 20.9757 22.9757 20.2108 23.455 19.27C23.7568 18.6777 23.8826 18.0375 23.9422 17.3086C24 16.6008 24 15.7267 24 14.6429V9.35717C24 8.27344 24 7.39923 23.9422 6.69138C23.8826 5.96253 23.7568 5.32234 23.455 4.73005C22.9757 3.78924 22.2108 3.02434 21.27 2.54497C20.6777 2.24318 20.0375 2.11737 19.3086 2.05782C18.6007 1.99998 17.7266 1.99999 16.6428 2ZM3.63803 4.32698C3.90139 4.1928 4.24907 4.10062 4.85424 4.05118C5.47108 4.00078 6.2634 4 7.4 4H16.6C17.7366 4 18.5289 4.00078 19.1458 4.05118C19.7509 4.10062 20.0986 4.1928 20.362 4.32698C20.7505 4.52494 21.089 4.80406 21.3561 5.1429L14.018 11.8139C12.8737 12.8542 11.1262 12.8542 9.98192 11.8139L2.64386 5.14296C2.91094 4.8041 3.24948 4.52496 3.63803 4.32698ZM2.02484 7.28314C2.00048 7.83183 2 8.51048 2 9.4V14.6C2 15.7366 2.00078 16.5289 2.05118 17.1458C2.09079 17.6306 2.15784 17.9502 2.25194 18.1936L7.46843 12.2318L2.02484 7.28314ZM3.63803 19.673L3.6221 19.6648L8.96014 13.5642C10.7505 14.9374 13.2495 14.9374 15.0398 13.5642L20.3779 19.6648C20.3726 19.6676 20.3673 19.6703 20.362 19.673C20.0986 19.8072 19.7509 19.8994 19.1458 19.9488C18.5289 19.9992 17.7366 20 16.6 20H7.4C6.26339 20 5.47108 19.9992 4.85424 19.9488C4.24907 19.8994 3.90139 19.8072 3.63803 19.673ZM21.7481 18.1936C21.8422 17.9502 21.9092 17.6306 21.9488 17.1458C21.9992 16.5289 22 15.7366 22 14.6V9.4C22 8.51043 21.9995 7.83175 21.9752 7.28304L16.5315 12.2318L21.7481 18.1936Z" fill="#0044FF"/>
    </g>
    <defs>
    <clipPath id="clip0_1557_5702">
    <rect width="24" height="24" fill="white"/>
    </clipPath>
    </defs>

<!-- FIGMA -->
    <g id="figma-filled">
    <path id="Subtract" d="M11.0002 1.3949C11.0002 1.15619 10.6976 1.05327 10.5521 1.24248L5.3121 8.05441C2.69231 11.4602 3.23073 16.3271 6.53162 19.0779L7.00022 19.4684V23C7.00022 23.5523 7.44793 24 8.00022 24H16.0002C16.5525 24 17.0002 23.5523 17.0002 23V19.4684L17.4688 19.0779C20.7697 16.3271 21.3081 11.4602 18.6883 8.05441L13.4484 1.24247C13.3028 1.05326 13.0002 1.15619 13.0002 1.3949V10.708C13.8832 11.0938 14.5002 11.9748 14.5002 13C14.5002 14.3807 13.3809 15.5 12.0002 15.5C10.6195 15.5 9.50021 14.3807 9.50021 13C9.50021 11.9748 10.1173 11.0938 11.0002 10.708V1.3949Z" fill="white"/>
    </g>

    <g id="figma">
    <path id="Union" fill-rule="evenodd" clip-rule="evenodd" d="M12.7928 0.390289C12.6035 0.144204 12.3107 0 12.0002 0C11.6897 0 11.3969 0.144204 11.2076 0.390289L5.3121 8.05442C2.69231 11.4602 3.23073 16.3271 6.53162 19.0779L7.00022 19.4684V23C7.00022 23.5523 7.44793 24 8.00022 24H16.0002C16.5525 24 17.0002 23.5523 17.0002 23V19.4684L17.4688 19.0779C20.7697 16.3271 21.3081 11.4602 18.6883 8.05442L12.7928 0.390289ZM6.89735 9.27384L11.0002 3.94012V10.708C10.1173 11.0938 9.50021 11.9748 9.50021 13C9.50021 14.3807 10.6195 15.5 12.0002 15.5C13.3809 15.5 14.5002 14.3807 14.5002 13C14.5002 11.9748 13.8832 11.0938 13.0002 10.708V3.94012L17.1031 9.27384C19.0679 11.8281 18.6641 15.4784 16.1884 17.5414L15.36 18.2318C15.132 18.4218 15.0002 18.7032 15.0002 19V22H9.00022V19C9.00022 18.7032 8.86839 18.4218 8.6404 18.2318L7.81199 17.5414C5.33632 15.4784 4.9325 11.8281 6.89735 9.27384Z" fill="#0044FF"/>
    </g>

<!-- GITHUB -->
    <g id="github-filled" clip-path="url(#clip0_1557_5720)">
    <path id="Subtract" fill-rule="evenodd" clip-rule="evenodd" d="M7.35719 2H16.6428C17.7266 1.99999 18.6007 1.99998 19.3086 2.05782C20.0375 2.11737 20.6777 2.24318 21.27 2.54497C22.2108 3.02434 22.9757 3.78924 23.455 4.73005C23.7568 5.32234 23.8826 5.96253 23.9422 6.69138C24 7.39923 24 8.27344 24 9.35717V14.6429C24 15.7267 24 16.6008 23.9422 17.3086C23.8826 18.0375 23.7568 18.6777 23.455 19.27C22.9757 20.2108 22.2108 20.9757 21.27 21.455C20.6777 21.7568 20.0375 21.8826 19.3086 21.9422C18.6008 22 17.7266 22 16.6428 22H7.35707C6.27334 22 5.39923 22 4.69138 21.9422C3.96253 21.8826 3.32234 21.7568 2.73005 21.455C1.78924 20.9757 1.02434 20.2108 0.544969 19.27C0.243181 18.6777 0.117369 18.0375 0.0578193 17.3086C-1.60784e-05 16.6008 -8.79852e-06 15.7266 2.24581e-07 14.6428V9.35718C-8.79852e-06 8.27341 -1.60746e-05 7.39925 0.0578193 6.69138C0.117369 5.96253 0.243181 5.32234 0.544969 4.73005C1.02434 3.78924 1.78924 3.02434 2.73005 2.54497C3.32234 2.24318 3.96253 2.11737 4.69138 2.05782C5.39925 1.99998 6.27342 1.99999 7.35719 2ZM10.2071 7.79289C9.81658 7.40237 9.18342 7.40237 8.79289 7.79289L5.29289 11.2929C4.90237 11.6834 4.90237 12.3166 5.29289 12.7071L8.79289 16.2071C9.18342 16.5976 9.81658 16.5976 10.2071 16.2071C10.5976 15.8166 10.5976 15.1834 10.2071 14.7929L7.41421 12L10.2071 9.20711C10.5976 8.81658 10.5976 8.18342 10.2071 7.79289ZM13.7929 7.79289C14.1834 7.40237 14.8166 7.40237 15.2071 7.79289L18.7071 11.2929C19.0976 11.6834 19.0976 12.3166 18.7071 12.7071L15.2071 16.2071C14.8166 16.5976 14.1834 16.5976 13.7929 16.2071C13.4024 15.8166 13.4024 15.1834 13.7929 14.7929L16.5858 12L13.7929 9.20711C13.4024 8.81658 13.4024 8.18342 13.7929 7.79289Z" fill="white"/>
    </g>
    <defs>
    <clipPath id="clip0_1557_5720">
    <rect width="24" height="24" fill="white"/>
    </clipPath>
    </defs>

    <g id="github" clip-path="url(#clip0_1557_5718)">
    <path d="M13.7929 7.79289C14.1834 7.40237 14.8166 7.40237 15.2071 7.79289L18.7071 11.2929C19.0976 11.6834 19.0976 12.3166 18.7071 12.7071L15.2071 16.2071C14.8166 16.5976 14.1834 16.5976 13.7929 16.2071C13.4024 15.8166 13.4024 15.1834 13.7929 14.7929L16.5858 12L13.7929 9.20711C13.4024 8.81658 13.4024 8.18342 13.7929 7.79289Z" fill="#0044FF"/>
    <path d="M8.79289 7.79289C9.18342 7.40237 9.81658 7.40237 10.2071 7.79289C10.5976 8.18342 10.5976 8.81658 10.2071 9.20711L7.41421 12L10.2071 14.7929C10.5976 15.1834 10.5976 15.8166 10.2071 16.2071C9.81658 16.5976 9.18342 16.5976 8.79289 16.2071L5.29289 12.7071C4.90237 12.3166 4.90237 11.6834 5.29289 11.2929L8.79289 7.79289Z" fill="#0044FF"/>
    <path fill-rule="evenodd" clip-rule="evenodd" d="M7.35719 2H16.6428C17.7266 1.99999 18.6007 1.99998 19.3086 2.05782C20.0375 2.11737 20.6777 2.24318 21.27 2.54497C22.2108 3.02434 22.9757 3.78924 23.455 4.73005C23.7568 5.32234 23.8826 5.96253 23.9422 6.69138C24 7.39923 24 8.27334 24 9.35707V14.6428C24 15.7266 24 16.6008 23.9422 17.3086C23.8826 18.0375 23.7568 18.6777 23.455 19.27C22.9757 20.2108 22.2108 20.9757 21.27 21.455C20.6777 21.7568 20.0375 21.8826 19.3086 21.9422C18.6008 22 17.7267 22 16.6429 22H7.35717C6.27344 22 5.39923 22 4.69138 21.9422C3.96253 21.8826 3.32234 21.7568 2.73005 21.455C1.78924 20.9757 1.02434 20.2108 0.544968 19.27C0.243181 18.6777 0.117368 18.0375 0.0578188 17.3086C-1.69165e-05 16.6007 -9.25633e-06 15.7266 2.42552e-07 14.6428V9.35719C-9.25633e-06 8.27342 -1.69165e-05 7.39925 0.0578188 6.69138C0.117368 5.96253 0.243181 5.32234 0.544968 4.73005C1.02434 3.78924 1.78924 3.02434 2.73005 2.54497C3.32234 2.24318 3.96253 2.11737 4.69138 2.05782C5.39925 1.99998 6.27341 1.99999 7.35719 2ZM4.85424 4.05118C4.24907 4.10062 3.90139 4.1928 3.63803 4.32698C3.07354 4.6146 2.6146 5.07354 2.32698 5.63803C2.1928 5.90138 2.10062 6.24907 2.05118 6.85424C2.00078 7.47108 2 8.26339 2 9.4V14.6C2 15.7366 2.00078 16.5289 2.05118 17.1458C2.10062 17.7509 2.1928 18.0986 2.32698 18.362C2.6146 18.9265 3.07354 19.3854 3.63803 19.673C3.90139 19.8072 4.24907 19.8994 4.85424 19.9488C5.47108 19.9992 6.26339 20 7.4 20H16.6C17.7366 20 18.5289 19.9992 19.1458 19.9488C19.7509 19.8994 20.0986 19.8072 20.362 19.673C20.9265 19.3854 21.3854 18.9265 21.673 18.362C21.8072 18.0986 21.8994 17.7509 21.9488 17.1458C21.9992 16.5289 22 15.7366 22 14.6V9.4C22 8.2634 21.9992 7.47108 21.9488 6.85424C21.8994 6.24907 21.8072 5.90138 21.673 5.63803C21.3854 5.07354 20.9265 4.6146 20.362 4.32698C20.0986 4.1928 19.7509 4.10062 19.1458 4.05118C18.5289 4.00078 17.7366 4 16.6 4H7.4C6.2634 4 5.47108 4.00078 4.85424 4.05118Z" fill="#0044FF"/>
    </g>
    <defs>
    <clipPath id="clip0_1557_5718">
    <rect width="24" height="24" fill="white"/>
    </clipPath>
    </defs>

<!-- IMAGE -->
    <g id="image-filled">
    <path fill-rule="evenodd" clip-rule="evenodd" d="M1 6C1 3.23858 3.23858 1 6 1H18C20.7614 1 23 3.23858 23 6V14.5857L19.1213 10.707C17.9497 9.53548 16.0503 9.53547 14.8787 10.707L10 15.5857L8.62132 14.207C7.44975 13.0355 5.55025 13.0355 4.37868 14.207L1 17.5857V6ZM10 8C10 9.10457 9.10457 10 8 10C6.89543 10 6 9.10457 6 8C6 6.89543 6.89543 6 8 6C9.10457 6 10 6.89543 10 8Z" fill="#0044ff"/>
    <path d="M1.41547 19.9987C2.18673 21.7653 3.94917 23 6 23H18C20.7614 23 23 20.7614 23 18V17.4142L17.7071 12.1213C17.3166 11.7307 16.6834 11.7307 16.2929 12.1213L10.7071 17.7071C10.3166 18.0976 9.68342 18.0976 9.29289 17.7071L7.20711 15.6213C6.81658 15.2307 6.18342 15.2307 5.79289 15.6213L1.41547 19.9987Z" fill="#0044ff"/>
    </g>

    <g id="image">
    <path d="M8 10C9.10457 10 10 9.10457 10 8C10 6.89543 9.10457 6 8 6C6.89543 6 6 6.89543 6 8C6 9.10457 6.89543 10 8 10Z" fill="#0044FF"/>
    <path fill-rule="evenodd" clip-rule="evenodd" d="M1 6C1 3.23858 3.23858 1 6 1H18C20.7614 1 23 3.23858 23 6V18C23 20.7614 20.7614 23 18 23H6C3.23858 23 1 20.7614 1 18V6ZM6 3C4.34315 3 3 4.34315 3 6V15.5857L4.37863 14.2071C5.55021 13.0355 7.4497 13.0355 8.62127 14.207L9.99995 15.5857L14.8786 10.707C16.0502 9.53547 17.9497 9.53548 19.1213 10.707L21 12.5858V6C21 4.34315 19.6569 3 18 3H6ZM6 21C4.47501 21 3.21578 19.8621 3.025 18.3891L5.79285 15.6213C6.18337 15.2307 6.81654 15.2307 7.20706 15.6213L9.29285 17.7071C9.68337 18.0976 10.3165 18.0976 10.7071 17.7071L16.2928 12.1213C16.6834 11.7307 17.3165 11.7307 17.7071 12.1213L21 15.4142V18C21 19.6569 19.6569 21 18 21H6Z" fill="#0044FF"/>
    </g>    

<!-- INSTAGRAM -->
    <g id="instagram-filled" clip-path="url(#clip0_1557_5700)">
    <path d="M9 13C9 11.3431 10.3431 10 12 10C13.6569 10 15 11.3431 15 13C15 14.6569 13.6569 16 12 16C10.3431 16 9 14.6569 9 13Z" fill="white"/>
    <path fill-rule="evenodd" clip-rule="evenodd" d="M8.05855 3.1094C8.93711 1.79156 10.4162 1 12 1C13.5838 1 15.0629 1.79156 15.9415 3.1094L16.5352 4L16.6428 4C17.7266 3.99999 18.6007 3.99998 19.3086 4.05782C20.0375 4.11737 20.6777 4.24318 21.27 4.54497C22.2108 5.02433 22.9757 5.78924 23.455 6.73005C23.7568 7.32234 23.8826 7.96253 23.9422 8.69138C24 9.39923 24 10.2734 24 11.3572V14.6429C24 15.7267 24 16.6008 23.9422 17.3086C23.8826 18.0375 23.7568 18.6777 23.455 19.27C22.9757 20.2108 22.2108 20.9757 21.27 21.455C20.6777 21.7568 20.0375 21.8826 19.3086 21.9422C18.6008 22 17.7266 22 16.6428 22H7.35707C6.27334 22 5.39923 22 4.69138 21.9422C3.96253 21.8826 3.32234 21.7568 2.73005 21.455C1.78924 20.9757 1.02434 20.2108 0.544969 19.27C0.243181 18.6777 0.117369 18.0375 0.0578193 17.3086C-1.60784e-05 16.6008 -8.79852e-06 15.7266 2.24581e-07 14.6428V11.3572C-8.79852e-06 10.2734 -1.60746e-05 9.39925 0.0578193 8.69138C0.117369 7.96253 0.243181 7.32234 0.544969 6.73005C1.02434 5.78924 1.78924 5.02433 2.73005 4.54497C3.32234 4.24318 3.96253 4.11737 4.69138 4.05782C5.39926 3.99998 6.27341 3.99999 7.35719 4L7.46482 4L8.05855 3.1094ZM12 8C9.23858 8 7 10.2386 7 13C7 15.7614 9.23858 18 12 18C14.7614 18 17 15.7614 17 13C17 10.2386 14.7614 8 12 8Z" fill="white"/>
    </g>
    <defs>
    <clipPath id="clip0_1557_5700">
    <rect width="24" height="24" fill="white"/>
    </clipPath>
    </defs>

    <g id="instagram" clip-path="url(#clip0_1557_5698)">
    <path fill-rule="evenodd" clip-rule="evenodd" d="M12 8C9.23858 8 7 10.2386 7 13C7 15.7614 9.23858 18 12 18C14.7614 18 17 15.7614 17 13C17 10.2386 14.7614 8 12 8ZM9 13C9 11.3431 10.3431 10 12 10C13.6569 10 15 11.3431 15 13C15 14.6569 13.6569 16 12 16C10.3431 16 9 14.6569 9 13Z" fill="#0044FF"/>
    <path fill-rule="evenodd" clip-rule="evenodd" d="M12 1C10.4162 1 8.93711 1.79156 8.05855 3.1094L7.46482 4L7.35719 4C6.27341 3.99999 5.39926 3.99998 4.69138 4.05782C3.96253 4.11737 3.32234 4.24318 2.73005 4.54497C1.78924 5.02433 1.02434 5.78924 0.544968 6.73005C0.243181 7.32234 0.117368 7.96253 0.0578188 8.69138C-1.69165e-05 9.39925 -9.25633e-06 10.2734 2.42552e-07 11.3572V14.6428C-9.25633e-06 15.7266 -1.69165e-05 16.6007 0.0578188 17.3086C0.117368 18.0375 0.243181 18.6777 0.544968 19.27C1.02434 20.2108 1.78924 20.9757 2.73005 21.455C3.32234 21.7568 3.96253 21.8826 4.69138 21.9422C5.39923 22 6.27334 22 7.35707 22H16.6428C17.7266 22 18.6008 22 19.3086 21.9422C20.0375 21.8826 20.6777 21.7568 21.27 21.455C22.2108 20.9757 22.9757 20.2108 23.455 19.27C23.7568 18.6777 23.8826 18.0375 23.9422 17.3086C24 16.6008 24 15.7267 24 14.6429V11.3572C24 10.2734 24 9.39923 23.9422 8.69138C23.8826 7.96253 23.7568 7.32234 23.455 6.73005C22.9757 5.78924 22.2108 5.02433 21.27 4.54497C20.6777 4.24318 20.0375 4.11737 19.3086 4.05782C18.6007 3.99998 17.7266 3.99999 16.6428 4L16.5352 4L15.9415 3.1094C15.0629 1.79156 13.5838 1 12 1ZM9.72265 4.2188C10.2303 3.45736 11.0849 3 12 3C12.9151 3 13.7697 3.45736 14.2774 4.2188L15.168 5.5547C15.3534 5.8329 15.6656 6 16 6H16.6C17.7366 6 18.5289 6.00078 19.1458 6.05118C19.7509 6.10062 20.0986 6.19279 20.362 6.32698C20.9265 6.6146 21.3854 7.07354 21.673 7.63803C21.8072 7.90138 21.8994 8.24907 21.9488 8.85424C21.9992 9.47108 22 10.2634 22 11.4V14.6C22 15.7366 21.9992 16.5289 21.9488 17.1458C21.8994 17.7509 21.8072 18.0986 21.673 18.362C21.3854 18.9265 20.9265 19.3854 20.362 19.673C20.0986 19.8072 19.7509 19.8994 19.1458 19.9488C18.5289 19.9992 17.7366 20 16.6 20H7.4C6.26339 20 5.47108 19.9992 4.85424 19.9488C4.24907 19.8994 3.90139 19.8072 3.63803 19.673C3.07354 19.3854 2.6146 18.9265 2.32698 18.362C2.1928 18.0986 2.10062 17.7509 2.05118 17.1458C2.00078 16.5289 2 15.7366 2 14.6V11.4C2 10.2634 2.00078 9.47108 2.05118 8.85424C2.10062 8.24907 2.1928 7.90138 2.32698 7.63803C2.6146 7.07354 3.07354 6.6146 3.63803 6.32698C3.90139 6.19279 4.24907 6.10062 4.85424 6.05118C5.47108 6.00078 6.2634 6 7.4 6H8C8.33435 6 8.64659 5.8329 8.83205 5.5547L9.72265 4.2188Z" fill="#0044FF"/>
    </g>
    <defs>
    <clipPath id="clip0_1557_5698">
    <rect width="24" height="24" fill="white"/>
    </clipPath>
    </defs>

<!-- LINKEDIN -->
    <g id="linkedin-filled">
    <path fill-rule="evenodd" clip-rule="evenodd" d="M11.1614 1H12.8385C13.3656 0.999985 13.8205 0.999971 14.195 1.03057C14.5904 1.06287 14.9836 1.13419 15.362 1.32698C15.9264 1.6146 16.3854 2.07355 16.673 2.63803C16.8658 3.01641 16.9371 3.40963 16.9694 3.80498C16.9969 4.14075 16.9997 4.54097 17 5H21C22.3062 5 23.4174 5.83481 23.8293 7C23.9184 7.25226 23.9613 7.50661 23.9817 7.76424C24.0116 8.14183 23.786 8.48884 23.4472 8.65823L22.5693 9.09719L14.8966 12.5848C13.0561 13.4214 10.9438 13.4214 9.10331 12.5848L1.43059 9.09719L0.55277 8.65828C0.213986 8.48889 -0.01165 8.14188 0.0182838 7.76429C0.038709 7.50665 0.0815244 7.25227 0.17069 7C0.582527 5.83481 1.69376 5 2.99998 5H7.00001C7.00029 4.54097 7.00312 4.14075 7.03056 3.80498C7.06286 3.40963 7.13417 3.01641 7.32697 2.63803C7.61459 2.07355 8.07353 1.6146 8.63801 1.32698C9.01639 1.13419 9.40961 1.06287 9.80496 1.03057C10.1795 0.999971 10.6343 0.999985 11.1614 1ZM14.9761 3.96784C14.9964 4.21699 14.9995 4.5349 14.9999 5H9.00006C9.0005 4.5349 9.00356 4.21699 9.02391 3.96784C9.04611 3.69618 9.08379 3.59546 9.10898 3.54601C9.20485 3.35785 9.35783 3.20487 9.54599 3.109C9.59544 3.0838 9.69616 3.04613 9.96782 3.02393C10.2512 3.00078 10.6234 3 11.2 3H12.8C13.3765 3 13.7488 3.00078 14.0321 3.02393C14.3038 3.04613 14.4045 3.0838 14.454 3.109C14.6421 3.20487 14.7951 3.35785 14.891 3.54601C14.9162 3.59546 14.9539 3.69618 14.9761 3.96784Z" fill="white"/>
    <path d="M0.999984 11.0984L0.999984 15.6428C0.999974 16.7266 0.999966 17.6007 1.0578 18.3086C1.11735 19.0375 1.24316 19.6777 1.54495 20.27C2.02432 21.2108 2.78922 21.9757 3.73003 22.455C4.32232 22.7568 4.96251 22.8826 5.69136 22.9422C6.39925 23 7.27341 23 8.3572 23H15.6428C16.7266 23 17.6007 23 18.3086 22.9422C19.0375 22.8826 19.6776 22.7568 20.2699 22.455C21.2107 21.9757 21.9757 21.2108 22.455 20.27C22.7568 19.6777 22.8826 19.0375 22.9422 18.3086C23 17.6008 23 16.7267 23 15.6429V11.0983L15.7242 14.4055C13.3578 15.4811 10.642 15.4811 8.2757 14.4055L0.999984 11.0984Z" fill="white"/>
    </g>

    <g id="linkedin">
    <path id="Union" fill-rule="evenodd" clip-rule="evenodd" d="M11.1615 1H12.8385C13.3657 0.999984 13.8205 0.999969 14.195 1.03057C14.5904 1.06287 14.9836 1.13419 15.362 1.32698C15.9265 1.6146 16.3854 2.07354 16.673 2.63803C16.8658 3.01641 16.9371 3.40963 16.9694 3.80497C16.9969 4.14075 16.9997 4.54097 17 5H21C22.6569 5 24 6.34315 24 8V9.35609C24 10.0753 23.6145 10.7336 23 11.0882V15.6428C23 16.7266 23 17.6008 22.9422 18.3086C22.8826 19.0375 22.7568 19.6777 22.455 20.27C21.9757 21.2108 21.2108 21.9757 20.27 22.455C19.6777 22.7568 19.0375 22.8826 18.3086 22.9422C17.6007 23 16.7266 23 15.6428 23H8.35722C7.27342 23 6.39926 23 5.69138 22.9422C4.96253 22.8826 4.32234 22.7568 3.73005 22.455C2.78924 21.9757 2.02433 21.2108 1.54497 20.27C1.24318 19.6777 1.11737 19.0375 1.05782 18.3086C0.999982 17.6007 0.99999 16.7266 1 15.6428L1 11.0882C0.385465 10.7336 0 10.0753 0 9.35609V8C0 6.34315 1.34314 5 3 5H7.00003C7.00031 4.54097 7.00314 4.14075 7.03057 3.80497C7.06287 3.40963 7.13419 3.01641 7.32698 2.63803C7.6146 2.07354 8.07354 1.6146 8.63803 1.32698C9.01641 1.13419 9.40963 1.06287 9.80497 1.03057C10.1795 0.999969 10.6343 0.999984 11.1615 1ZM9.00007 5H14.9999C14.9995 4.5349 14.9964 4.21698 14.9761 3.96784C14.9539 3.69618 14.9162 3.59546 14.891 3.54601C14.7951 3.35785 14.6422 3.20487 14.454 3.109C14.4045 3.0838 14.3038 3.04613 14.0322 3.02393C13.7488 3.00078 13.3766 3 12.8 3H11.2C10.6234 3 10.2512 3.00078 9.96784 3.02393C9.69617 3.04613 9.59546 3.0838 9.54601 3.109C9.35785 3.20487 9.20487 3.35785 9.109 3.54601C9.0838 3.59546 9.04612 3.69618 9.02393 3.96784C9.00357 4.21698 9.00051 4.5349 9.00007 5ZM7.99803 7H3C2.44772 7 2 7.44772 2 8V9.35609L9.10338 12.5849C10.9439 13.4215 13.0561 13.4215 14.8966 12.5849L22 9.35609V8C22 7.44772 21.5523 7 21 7H16.002C16.0013 7 16.0007 7 16 7H8C7.99934 7 7.99869 7 7.99803 7ZM3 12.0076V15.6C3 16.7366 3.00078 17.5289 3.05118 18.1458C3.10062 18.7509 3.19279 19.0986 3.32698 19.362C3.6146 19.9265 4.07354 20.3854 4.63803 20.673C4.90138 20.8072 5.24907 20.8994 5.85424 20.9488C6.47108 20.9992 7.26339 21 8.4 21H15.6C16.7366 21 17.5289 20.9992 18.1458 20.9488C18.7509 20.8994 19.0986 20.8072 19.362 20.673C19.9265 20.3854 20.3854 19.9265 20.673 19.362C20.8072 19.0986 20.8994 18.7509 20.9488 18.1458C20.9992 17.5289 21 16.7366 21 15.6V12.0076L15.7242 14.4056C13.3579 15.4812 10.6421 15.4812 8.27577 14.4056L3 12.0076Z" fill="#0044FF"/>
    </g>

<!-- READCV -->
    <g id="readcv-filled" clip-path="url(#clip0_1557_5712)">
    <path id="Exclude" fill-rule="evenodd" clip-rule="evenodd" d="M9.35719 2.24581e-07H14.6428C15.7266 -8.79852e-06 16.6008 -1.60746e-05 17.3086 0.0578193C18.0375 0.117369 18.6777 0.243181 19.27 0.544969C20.2108 1.02434 20.9757 1.78924 21.455 2.73005C21.7568 3.32234 21.8826 3.96253 21.9422 4.69138C22 5.39923 22 6.27344 22 7.35717V16.6429C22 17.7267 22 18.6008 21.9422 19.3086C21.8826 20.0375 21.7568 20.6777 21.455 21.27C20.9757 22.2108 20.2108 22.9757 19.27 23.455C18.6777 23.7568 18.0375 23.8826 17.3086 23.9422C16.6008 24 15.7266 24 14.6428 24H9.35707C8.27334 24 7.39923 24 6.69138 23.9422C5.96253 23.8826 5.32234 23.7568 4.73005 23.455C3.78924 22.9757 3.02434 22.2108 2.54497 21.27C2.24318 20.6777 2.11737 20.0375 2.05782 19.3086C1.99998 18.6007 1.99999 17.7266 2 16.6428V7.35719C1.99999 6.27341 1.99998 5.39925 2.05782 4.69138C2.11737 3.96253 2.24318 3.32234 2.54497 2.73005C3.02434 1.78924 3.78924 1.02434 4.73005 0.544969C5.32234 0.243181 5.96253 0.117369 6.69138 0.0578193C7.39925 -1.60784e-05 8.27343 -8.79852e-06 9.35719 2.24581e-07ZM7 6C7 5.44772 7.44772 5 8 5H13C13.5523 5 14 5.44772 14 6C14 6.55228 13.5523 7 13 7H8C7.44772 7 7 6.55228 7 6ZM7 10C7 9.44772 7.44772 9 8 9H16C16.5523 9 17 9.44772 17 10C17 10.5523 16.5523 11 16 11H8C7.44772 11 7 10.5523 7 10ZM8 13C7.44772 13 7 13.4477 7 14C7 14.5523 7.44772 15 8 15H16C16.5523 15 17 14.5523 17 14C17 13.4477 16.5523 13 16 13H8ZM7 18C7 17.4477 7.44772 17 8 17H14C14.5523 17 15 17.4477 15 18C15 18.5523 14.5523 19 14 19H8C7.44772 19 7 18.5523 7 18Z" fill="white"/>
    </g>
    <defs>
    <clipPath id="clip0_1557_5712">
    <rect width="24" height="24" fill="white"/>
    </clipPath>
    </defs>

    <g id="readcv" clip-path="url(#clip0_1557_5710)">
    <path d="M7 6C7 5.44772 7.44772 5 8 5H13C13.5523 5 14 5.44772 14 6C14 6.55229 13.5523 7 13 7H8C7.44772 7 7 6.55229 7 6Z" fill="#0044FF"/>
    <path d="M8 9C7.44772 9 7 9.44771 7 10C7 10.5523 7.44772 11 8 11H16C16.5523 11 17 10.5523 17 10C17 9.44771 16.5523 9 16 9H8Z" fill="#0044FF"/>
    <path d="M7 14C7 13.4477 7.44772 13 8 13H16C16.5523 13 17 13.4477 17 14C17 14.5523 16.5523 15 16 15H8C7.44772 15 7 14.5523 7 14Z" fill="#0044FF"/>
    <path d="M8 17C7.44772 17 7 17.4477 7 18C7 18.5523 7.44772 19 8 19H14C14.5523 19 15 18.5523 15 18C15 17.4477 14.5523 17 14 17H8Z" fill="#0044FF"/>
    <path fill-rule="evenodd" clip-rule="evenodd" d="M9.35719 2.42552e-07H14.6428C15.7266 -9.25633e-06 16.6007 -1.69165e-05 17.3086 0.0578188C18.0375 0.117368 18.6777 0.243181 19.27 0.544968C20.2108 1.02434 20.9757 1.78924 21.455 2.73005C21.7568 3.32234 21.8826 3.96253 21.9422 4.69138C22 5.39923 22 6.27334 22 7.35707V16.6428C22 17.7266 22 18.6008 21.9422 19.3086C21.8826 20.0375 21.7568 20.6777 21.455 21.27C20.9757 22.2108 20.2108 22.9757 19.27 23.455C18.6777 23.7568 18.0375 23.8826 17.3086 23.9422C16.6008 24 15.7267 24 14.6429 24H9.35717C8.27344 24 7.39923 24 6.69138 23.9422C5.96253 23.8826 5.32234 23.7568 4.73005 23.455C3.78924 22.9757 3.02434 22.2108 2.54497 21.27C2.24318 20.6777 2.11737 20.0375 2.05782 19.3086C1.99998 18.6007 1.99999 17.7266 2 16.6428V7.35719C1.99999 6.27341 1.99998 5.39925 2.05782 4.69138C2.11737 3.96253 2.24318 3.32234 2.54497 2.73005C3.02434 1.78924 3.78924 1.02434 4.73005 0.544968C5.32234 0.243181 5.96253 0.117368 6.69138 0.0578188C7.39925 -1.69165e-05 8.27342 -9.25633e-06 9.35719 2.42552e-07ZM6.85424 2.05118C6.24907 2.10062 5.90138 2.1928 5.63803 2.32698C5.07354 2.6146 4.6146 3.07354 4.32698 3.63803C4.1928 3.90139 4.10062 4.24907 4.05118 4.85424C4.00078 5.47108 4 6.26339 4 7.4V16.6C4 17.7366 4.00078 18.5289 4.05118 19.1458C4.10062 19.7509 4.1928 20.0986 4.32698 20.362C4.6146 20.9265 5.07354 21.3854 5.63803 21.673C5.90138 21.8072 6.24907 21.8994 6.85424 21.9488C7.47108 21.9992 8.26339 22 9.4 22H14.6C15.7366 22 16.5289 21.9992 17.1458 21.9488C17.7509 21.8994 18.0986 21.8072 18.362 21.673C18.9265 21.3854 19.3854 20.9265 19.673 20.362C19.8072 20.0986 19.8994 19.7509 19.9488 19.1458C19.9992 18.5289 20 17.7366 20 16.6V7.4C20 6.2634 19.9992 5.47108 19.9488 4.85424C19.8994 4.24907 19.8072 3.90139 19.673 3.63803C19.3854 3.07354 18.9265 2.6146 18.362 2.32698C18.0986 2.1928 17.7509 2.10062 17.1458 2.05118C16.5289 2.00078 15.7366 2 14.6 2H9.4C8.2634 2 7.47108 2.00078 6.85424 2.05118Z" fill="#0044FF"/>
    </g>
    <defs>
    <clipPath id="clip0_1557_5710">
    <rect width="24" height="24" fill="white"/>
    </clipPath>
    </defs>

<!-- SMILE -->
    <g id="smile-filled">
    <path id="Subtract" fill-rule="evenodd" clip-rule="evenodd" d="M0 12C0 5.37258 5.37258 0 12 0C18.6274 0 24 5.37258 24 12C24 18.6274 18.6274 24 12 24C5.37258 24 0 18.6274 0 12ZM8.5 11C9.32843 11 10 10.3284 10 9.5C10 8.67157 9.32843 8 8.5 8C7.67157 8 7 8.67157 7 9.5C7 10.3284 7.67157 11 8.5 11ZM15.5 11C16.3284 11 17 10.3284 17 9.5C17 8.67157 16.3284 8 15.5 8C14.6716 8 14 8.67157 14 9.5C14 10.3284 14.6716 11 15.5 11ZM7.89209 13.5482C7.64368 13.0575 7.04521 12.8593 6.55276 13.1055C6.05878 13.3525 5.85856 13.9532 6.10555 14.4472L6.10644 14.449L6.10747 14.451L6.10997 14.456L6.11674 14.4691C6.12203 14.4793 6.1289 14.4924 6.13736 14.5081C6.15428 14.5394 6.1776 14.5815 6.20749 14.6328C6.26718 14.7351 6.35349 14.8747 6.46767 15.0391C6.69513 15.3667 7.0385 15.8003 7.50919 16.2348C8.45577 17.1085 9.93724 18 12 18C14.0627 18 15.5442 17.1085 16.4908 16.2348C16.9615 15.8003 17.3048 15.3667 17.5323 15.0391C17.6465 14.8747 17.7328 14.7351 17.7925 14.6328C17.8223 14.5815 17.8457 14.5394 17.8626 14.5081C17.8677 14.4986 17.8722 14.49 17.8762 14.4825C17.8788 14.4776 17.8811 14.4731 17.8832 14.4691L17.89 14.456L17.8925 14.451L17.8935 14.449L17.894 14.448C18.141 13.9541 17.9412 13.3525 17.4472 13.1055C16.9547 12.8593 16.3562 13.0575 16.1078 13.5482L16.102 13.5593C16.0952 13.5718 16.0829 13.5942 16.0649 13.625C16.0289 13.6867 15.9707 13.7815 15.8895 13.8983C15.7264 14.1333 15.476 14.4497 15.1342 14.7652C14.4558 15.3914 13.4372 16 12 16C10.5627 16 9.54418 15.3914 8.86576 14.7652C8.52396 14.4497 8.27357 14.1333 8.11041 13.8983C8.02927 13.7815 7.97105 13.6867 7.93504 13.625C7.91708 13.5942 7.90476 13.5718 7.89799 13.5593L7.89209 13.5482Z" fill="white"/>
    </g>

    <g id="smile">
    <path id="Ellipse 8 (Stroke)" fill-rule="evenodd" clip-rule="evenodd" d="M12 2C6.47715 2 2 6.47715 2 12C2 17.5228 6.47715 22 12 22C17.5228 22 22 17.5228 22 12C22 6.47715 17.5228 2 12 2ZM0 12C0 5.37258 5.37258 0 12 0C18.6274 0 24 5.37258 24 12C24 18.6274 18.6274 24 12 24C5.37258 24 0 18.6274 0 12Z" fill="#0044FF"/>
    <path id="Ellipse 11" d="M10 9.5C10 10.3284 9.32843 11 8.5 11C7.67157 11 7 10.3284 7 9.5C7 8.67157 7.67157 8 8.5 8C9.32843 8 10 8.67157 10 9.5Z" fill="#0044FF"/>
    <path id="Ellipse 12" d="M17 9.5C17 10.3284 16.3284 11 15.5 11C14.6716 11 14 10.3284 14 9.5C14 8.67157 14.6716 8 15.5 8C16.3284 8 17 8.67157 17 9.5Z" fill="#0044FF"/>
    <path id="Vector 12 (Stroke)" fill-rule="evenodd" clip-rule="evenodd" d="M7.89233 13.5482C7.64393 13.0575 7.04545 12.8593 6.55301 13.1055C6.05903 13.3525 5.8588 13.9532 6.10579 14.4472L7.00022 14C6.10579 14.4472 6.106 14.4476 6.10622 14.448L6.10668 14.449L6.10771 14.451L6.11022 14.456L6.11698 14.4691C6.12228 14.4793 6.12914 14.4924 6.13761 14.5081C6.15452 14.5394 6.17785 14.5815 6.20773 14.6328C6.26742 14.7351 6.35373 14.8747 6.46791 15.0391C6.69537 15.3667 7.03874 15.8003 7.50944 16.2348C8.45601 17.1085 9.93748 18 12.0002 18C14.063 18 15.5444 17.1085 16.491 16.2348C16.9617 15.8003 17.3051 15.3667 17.5325 15.0391C17.6467 14.8747 17.733 14.7351 17.7927 14.6328C17.8226 14.5815 17.8459 14.5394 17.8628 14.5081C17.8713 14.4924 17.8782 14.4793 17.8835 14.4691L17.8902 14.456L17.8927 14.451L17.8938 14.449L17.8942 14.448C17.8944 14.4476 17.8946 14.4472 17.0002 14L17.8946 14.4472C18.1416 13.9532 17.9414 13.3525 17.4474 13.1055C16.955 12.8593 16.3565 13.0575 16.1081 13.5482M16.108 13.5483L16.1022 13.5593C16.0954 13.5718 16.0831 13.5942 16.0652 13.625C16.0291 13.6867 15.9709 13.7815 15.8898 13.8983C15.7266 14.1333 15.4762 14.4497 15.1344 14.7652C14.456 15.3914 13.4375 16 12.0002 16C10.563 16 9.54443 15.3914 8.866 14.7652C8.5242 14.4497 8.27382 14.1333 8.11065 13.8983C8.02952 13.7815 7.97129 13.6867 7.93529 13.625C7.91732 13.5942 7.905 13.5718 7.89823 13.5593L7.89233 13.5482" fill="#0044FF"/>
    </g>

<!-- TWITTER -->
    <g id="twitter-filled" clip-path="url(#clip0_1557_5692)">
    <path id="Subtract" fill-rule="evenodd" clip-rule="evenodd" d="M16.6428 2H7.35719C6.27341 1.99999 5.39925 1.99998 4.69138 2.05782C3.96253 2.11737 3.32234 2.24318 2.73005 2.54497C1.78924 3.02434 1.02434 3.78924 0.544968 4.73005C0.243181 5.32234 0.117368 5.96253 0.0578188 6.69138C-1.69165e-05 7.39925 -9.25633e-06 8.2734 2.42553e-07 9.35718V10.6986C-8.77947e-06 11.7565 -1.6056e-05 12.6097 0.0551599 13.3012C0.111959 14.013 0.231922 14.6389 0.519906 15.2201C1.00569 16.2004 1.79961 16.9943 2.77992 17.4801C3.36107 17.7681 3.98695 17.888 4.69878 17.9448C5.39024 18 6.24346 18 7.30126 18H7.34315C7.47103 18 7.53486 18.0002 7.58123 18.0023L7.58477 18.0025L7.58738 18.0048C7.62164 18.0362 7.66693 18.0811 7.75736 18.1716L10.1841 20.5983C10.3625 20.7767 10.5363 20.9506 10.6955 21.0858C10.8704 21.2342 11.0923 21.3938 11.382 21.4879C11.7837 21.6184 12.2163 21.6184 12.618 21.4879C12.9078 21.3938 13.1296 21.2342 13.3045 21.0858C13.4637 20.9506 13.6375 20.7768 13.8159 20.5983L16.2426 18.1716C16.3331 18.0811 16.3784 18.0362 16.4126 18.0048L16.4152 18.0025L16.4188 18.0023C16.4651 18.0002 16.529 18 16.6569 18H16.6986C17.7564 18 18.6098 18 19.3012 17.9448C20.013 17.888 20.6389 17.7681 21.2201 17.4801C22.2004 16.9943 22.9943 16.2004 23.4801 15.2201C23.7681 14.6389 23.888 14.013 23.9448 13.3012C24 12.6097 24 11.7565 24 10.6986V9.35717C24 8.27344 24 7.39923 23.9422 6.69138C23.8826 5.96253 23.7568 5.32234 23.455 4.73005C22.9757 3.78924 22.2108 3.02434 21.27 2.54497C20.6777 2.24318 20.0375 2.11737 19.3086 2.05782C18.6007 1.99998 17.7266 1.99999 16.6428 2ZM5 8C5 7.44772 5.44772 7 6 7H18C18.5523 7 19 7.44772 19 8C19 8.55229 18.5523 9 18 9H6C5.44772 9 5 8.55229 5 8ZM5 12C5 11.4477 5.44772 11 6 11H14C14.5523 11 15 11.4477 15 12C15 12.5523 14.5523 13 14 13H6C5.44772 13 5 12.5523 5 12Z" fill="white"/>
    </g>
    <defs>
    <clipPath id="clip0_1557_5692">
    <rect width="24" height="24" fill="white"/>
    </clipPath>
    </defs>

    <g id="twitter" clip-path="url(#clip0_1557_5690)">
    <path d="M5 8C5 7.44772 5.44772 7 6 7H18C18.5523 7 19 7.44772 19 8C19 8.55229 18.5523 9 18 9H6C5.44772 9 5 8.55229 5 8Z" fill="#0044FF"/>
    <path d="M6 11C5.44772 11 5 11.4477 5 12C5 12.5523 5.44772 13 6 13H14C14.5523 13 15 12.5523 15 12C15 11.4477 14.5523 11 14 11H6Z" fill="#0044FF"/>
    <path fill-rule="evenodd" clip-rule="evenodd" d="M7.35719 2H16.6428C17.7266 1.99999 18.6007 1.99998 19.3086 2.05782C20.0375 2.11737 20.6777 2.24318 21.27 2.54497C22.2108 3.02434 22.9757 3.78924 23.455 4.73005C23.7568 5.32234 23.8826 5.96253 23.9422 6.69138C24 7.39923 24 8.27334 24 9.35707V10.6986C24 11.7565 24 12.6097 23.9448 13.3012C23.888 14.013 23.7681 14.6389 23.4801 15.2201C22.9943 16.2004 22.2004 16.9943 21.2201 17.4801C20.6389 17.7681 20.013 17.888 19.3012 17.9448C18.6098 18 17.7565 18 16.6987 18H16.6569C16.529 18 16.4651 18.0002 16.4188 18.0023L16.4152 18.0025L16.4126 18.0048C16.3784 18.0362 16.3331 18.0811 16.2426 18.1716L13.8159 20.5983C13.6375 20.7768 13.4637 20.9506 13.3045 21.0858C13.1296 21.2342 12.9078 21.3938 12.618 21.4879C12.2163 21.6184 11.7837 21.6184 11.382 21.4879C11.0923 21.3938 10.8704 21.2342 10.6955 21.0858C10.5364 20.9506 10.3626 20.7769 10.1843 20.5985L7.75736 18.1716C7.66693 18.0811 7.62164 18.0362 7.58738 18.0048L7.58477 18.0025L7.58123 18.0023C7.53486 18.0002 7.47103 18 7.34315 18H7.30136C6.24356 18 5.39024 18 4.69878 17.9448C3.98695 17.888 3.36107 17.7681 2.77992 17.4801C1.79961 16.9943 1.00569 16.2004 0.519906 15.2201C0.231922 14.6389 0.111959 14.013 0.0551599 13.3012C-1.6056e-05 12.6097 -8.77947e-06 11.7565 2.42552e-07 10.6986V9.35719C-9.25633e-06 8.27342 -1.69165e-05 7.39925 0.0578188 6.69138C0.117368 5.96253 0.243181 5.32234 0.544968 4.73005C1.02434 3.78924 1.78924 3.02434 2.73005 2.54497C3.32234 2.24318 3.96253 2.11737 4.69138 2.05782C5.39925 1.99998 6.27341 1.99999 7.35719 2ZM4.85424 4.05118C4.24907 4.10062 3.90139 4.1928 3.63803 4.32698C3.07354 4.6146 2.6146 5.07354 2.32698 5.63803C2.1928 5.90138 2.10062 6.24907 2.05118 6.85424C2.00078 7.47108 2 8.2634 2 9.4V10.6569C2 11.7662 2.00074 12.5396 2.04882 13.1421C2.096 13.7334 2.184 14.0739 2.31194 14.332C2.60342 14.9202 3.07977 15.3966 3.66795 15.6881C3.92614 15.816 4.26656 15.904 4.85786 15.9512C5.46042 15.9993 6.23376 16 7.34315 16L7.39298 15.9999C7.5784 15.9994 7.81181 15.9988 8.04182 16.0527C8.25345 16.1022 8.45559 16.186 8.64029 16.3006C8.84102 16.4251 9.00563 16.5906 9.1364 16.7221L9.17157 16.7574L11.5757 19.1615C11.7854 19.3712 11.9007 19.4854 11.9899 19.5611L12 19.5696L12.0101 19.5611C12.0993 19.4854 12.2146 19.3712 12.4243 19.1615L14.8284 16.7574L14.8636 16.7221C14.9944 16.5906 15.159 16.4251 15.3597 16.3006C15.5444 16.186 15.7466 16.1022 15.9582 16.0527C16.1882 15.9988 16.4216 15.9994 16.607 15.9999L16.6569 16C17.7662 16 18.5396 15.9993 19.1421 15.9512C19.7334 15.904 20.0739 15.816 20.332 15.6881C20.9202 15.3966 21.3966 14.9202 21.6881 14.332C21.816 14.0739 21.904 13.7334 21.9512 13.1421C21.9993 12.5396 22 11.7662 22 10.6569V9.4C22 8.2634 21.9992 7.47108 21.9488 6.85424C21.8994 6.24907 21.8072 5.90138 21.673 5.63803C21.3854 5.07354 20.9265 4.6146 20.362 4.32698C20.0986 4.1928 19.7509 4.10062 19.1458 4.05118C18.5289 4.00078 17.7366 4 16.6 4H7.4C6.2634 4 5.47108 4.00078 4.85424 4.05118Z" fill="#0044FF"/>
    </g>
    <defs>
    <clipPath id="clip0_1557_5690">
    <rect width="24" height="24" fill="white"/>
    </clipPath>
    </defs>
</svg>