<svg width="24" height="24" viewBox="0 0 24 24" fill="none" xmlns="http://www.w3.org/2000/svg">

    <!-- SMILE -->
    <g id="smile-line" width="24" height="24" viewBox="0 0 24 24" fill="none">
        <path fill-rule="evenodd" clip-rule="evenodd" d="M12 2C6.47715 2 2 6.47715 2 12C2 17.5228 6.47715 22 12 22C17.5228 22 22 17.5228 22 12C22 6.47715 17.5228 2 12 2ZM0 12C0 5.37258 5.37258 0 12 0C18.6274 0 24 5.37258 24 12C24 18.6274 18.6274 24 12 24C5.37258 24 0 18.6274 0 12Z" fill="#0044FF"/>
        <path d="M10 9.5C10 10.3284 9.32843 11 8.5 11C7.67157 11 7 10.3284 7 9.5C7 8.67157 7.67157 8 8.5 8C9.32843 8 10 8.67157 10 9.5Z" fill="#0044FF"/>
        <path d="M17 9.5C17 10.3284 16.3284 11 15.5 11C14.6716 11 14 10.3284 14 9.5C14 8.67157 14.6716 8 15.5 8C16.3284 8 17 8.67157 17 9.5Z" fill="#0044FF"/>
        <path fill-rule="evenodd" clip-rule="evenodd" d="M7.89209 13.5482C7.64368 13.0575 7.04521 12.8593 6.55276 13.1055C6.05878 13.3525 5.85856 13.9532 6.10555 14.4472L6.99997 14C6.10555 14.4472 6.10576 14.4476 6.10597 14.448L6.10644 14.449L6.10747 14.451L6.10997 14.456L6.11674 14.4691C6.12203 14.4793 6.1289 14.4924 6.13736 14.5081C6.15428 14.5394 6.1776 14.5815 6.20749 14.6328C6.26718 14.7351 6.35349 14.8747 6.46767 15.0391C6.69513 15.3667 7.03849 15.8003 7.50919 16.2348C8.45577 17.1085 9.93724 18 12 18C14.0627 18 15.5442 17.1085 16.4908 16.2348C16.9615 15.8003 17.3048 15.3667 17.5323 15.0391C17.6465 14.8747 17.7328 14.7351 17.7925 14.6328C17.8223 14.5815 17.8457 14.5394 17.8626 14.5081C17.871 14.4924 17.8779 14.4793 17.8832 14.4691L17.89 14.456L17.8925 14.451L17.8935 14.449L17.894 14.448C17.8942 14.4476 17.8944 14.4472 17 14L17.8944 14.4472C18.1414 13.9532 17.9412 13.3525 17.4472 13.1055C16.9547 12.8593 16.3562 13.0575 16.1078 13.5482M16.1078 13.5483L16.102 13.5593C16.0952 13.5718 16.0829 13.5942 16.0649 13.625C16.0289 13.6867 15.9707 13.7815 15.8895 13.8983C15.7264 14.1333 15.476 14.4497 15.1342 14.7652C14.4558 15.3914 13.4372 16 12 16C10.5627 16 9.54418 15.3914 8.86576 14.7652C8.52395 14.4497 8.27357 14.1333 8.11041 13.8983C8.02927 13.7815 7.97105 13.6867 7.93504 13.625C7.91707 13.5942 7.90476 13.5718 7.89799 13.5593L7.89209 13.5482" fill="#0044FF"/>
    </g>
    <g id="smile-filled" width="24" height="24" viewBox="0 0 24 24" fill="none">
        <path fill-rule="evenodd" clip-rule="evenodd" d="M0 12C0 5.37258 5.37258 0 12 0C18.6274 0 24 5.37258 24 12C24 18.6274 18.6274 24 12 24C5.37258 24 0 18.6274 0 12ZM8.5 11C9.32843 11 10 10.3284 10 9.5C10 8.67157 9.32843 8 8.5 8C7.67157 8 7 8.67157 7 9.5C7 10.3284 7.67157 11 8.5 11ZM15.5 11C16.3284 11 17 10.3284 17 9.5C17 8.67157 16.3284 8 15.5 8C14.6716 8 14 8.67157 14 9.5C14 10.3284 14.6716 11 15.5 11ZM7.89209 13.5482C7.64368 13.0575 7.04521 12.8593 6.55276 13.1055C6.05878 13.3525 5.85856 13.9532 6.10555 14.4472L6.10644 14.449L6.10747 14.451L6.10997 14.456L6.11674 14.4691C6.12203 14.4793 6.1289 14.4924 6.13736 14.5081C6.15428 14.5394 6.1776 14.5815 6.20749 14.6328C6.26718 14.7351 6.35349 14.8747 6.46767 15.0391C6.69513 15.3667 7.0385 15.8003 7.50919 16.2348C8.45577 17.1085 9.93724 18 12 18C14.0627 18 15.5442 17.1085 16.4908 16.2348C16.9615 15.8003 17.3048 15.3667 17.5323 15.0391C17.6465 14.8747 17.7328 14.7351 17.7925 14.6328C17.8223 14.5815 17.8457 14.5394 17.8626 14.5081C17.8677 14.4986 17.8722 14.49 17.8762 14.4825C17.8788 14.4776 17.8811 14.4731 17.8832 14.4691L17.89 14.456L17.8925 14.451L17.8935 14.449L17.894 14.448C18.141 13.9541 17.9412 13.3525 17.4472 13.1055C16.9547 12.8593 16.3562 13.0575 16.1078 13.5482L16.102 13.5593C16.0952 13.5718 16.0829 13.5942 16.0649 13.625C16.0289 13.6867 15.9707 13.7815 15.8895 13.8983C15.7264 14.1333 15.476 14.4497 15.1342 14.7652C14.4558 15.3914 13.4372 16 12 16C10.5627 16 9.54418 15.3914 8.86576 14.7652C8.52395 14.4497 8.27357 14.1333 8.11041 13.8983C8.02927 13.7815 7.97105 13.6867 7.93504 13.625C7.91708 13.5942 7.90476 13.5718 7.89799 13.5593L7.89209 13.5482Z" fill="#fff"/>
    </g>

    <!-- INFO -->
    <g id="info-line" width="24" height="24" viewBox="0 0 24 24" fill="none">
        <path fill-rule="evenodd" clip-rule="evenodd" d="M12 2C6.47715 2 2 6.47715 2 12C2 17.5228 6.47715 22 12 22C17.5228 22 22 17.5228 22 12C22 6.47715 17.5228 2 12 2ZM0 12C0 5.37258 5.37258 0 12 0C18.6274 0 24 5.37258 24 12C24 18.6274 18.6274 24 12 24C5.37258 24 0 18.6274 0 12ZM13.25 8.25C13.25 8.94036 12.6904 9.5 12 9.5C11.3096 9.5 10.75 8.94036 10.75 8.25C10.75 7.55964 11.3096 7 12 7C12.6904 7 13.25 7.55964 13.25 8.25ZM13 12C13 11.4477 12.5523 11 12 11C11.4477 11 11 11.4477 11 12V16C11 16.5523 11.4477 17 12 17C12.5523 17 13 16.5523 13 16V12Z" fill="#0044FF"/>
    </g>
    <g id="info-filled" width="24" height="24" viewBox="0 0 24 24" fill="none">
        <path fill-rule="evenodd" clip-rule="evenodd" d="M0 12C0 5.37258 5.37258 0 12 0C18.6274 0 24 5.37258 24 12C24 18.6274 18.6274 24 12 24C5.37258 24 0 18.6274 0 12ZM13.25 8.25C13.25 8.94036 12.6904 9.5 12 9.5C11.3096 9.5 10.75 8.94036 10.75 8.25C10.75 7.55964 11.3096 7 12 7C12.6904 7 13.25 7.55964 13.25 8.25ZM12 11C12.5523 11 13 11.4477 13 12V16C13 16.5523 12.5523 17 12 17C11.4477 17 11 16.5523 11 16V12C11 11.4477 11.4477 11 12 11Z" fill="white"/>
    </g>

    <!-- ABOUT -->
    <g id="about-line" width="24" height="24" viewBox="0 0 24 24" fill="none">
        <path fill-rule="evenodd" clip-rule="evenodd" d="M8 6C8 3.79086 9.79086 2 12 2C14.2091 2 16 3.79086 16 6C16 8.20914 14.2091 10 12 10C9.79086 10 8 8.20914 8 6ZM12 0C8.68629 0 6 2.68629 6 6C6 9.31371 8.68629 12 12 12C15.3137 12 18 9.31371 18 6C18 2.68629 15.3137 0 12 0ZM7 14C4.23858 14 2 16.2386 2 19C2 21.7614 4.23858 24 7 24H17C19.7614 24 22 21.7614 22 19C22 16.2386 19.7614 14 17 14H7ZM4 19C4 17.3431 5.34315 16 7 16H17C18.6569 16 20 17.3431 20 19C20 20.6569 18.6569 22 17 22H7C5.34315 22 4 20.6569 4 19Z" fill="#0044FF"/>
    </g>
    <g id="about-filled" width="24" height="24" viewBox="0 0 24 24" fill="none">
        <path fill-rule="evenodd" clip-rule="evenodd" d="M12 0C8.68629 0 6 2.68629 6 6C6 9.31371 8.68629 12 12 12C15.3137 12 18 9.31371 18 6C18 2.68629 15.3137 0 12 0ZM7 14C4.23858 14 2 16.2386 2 19C2 21.7614 4.23858 24 7 24H17C19.7614 24 22 21.7614 22 19C22 16.2386 19.7614 14 17 14H7Z" fill="white"/>
    </g>
    <!-- <g id="about-filled-2" width="24" height="24" viewBox="0 0 24 24" fill="none">
        <path fill-rule="evenodd" clip-rule="evenodd" d="M56 0C52.6863 0 50 2.68629 50 6C50 9.31371 52.6863 12 56 12C59.3137 12 62 9.31371 62 6C62 2.68629 59.3137 0 56 0ZM51 14C48.2386 14 46 16.2386 46 19C46 21.7614 48.2386 24 51 24H61C63.7614 24 66 21.7614 66 19C66 16.2386 63.7614 14 61 14H51Z" fill="#0044FF"/>
    </g> -->

</svg>